<?xml version="1.0" encoding="utf-8"?>
<!-- Generator: Adobe Illustrator 23.0.1, SVG Export Plug-In . SVG Version: 6.00 Build 0)  -->
<svg version="1.1" id="圖層_1" xmlns="http://www.w3.org/2000/svg" xmlns:xlink="http://www.w3.org/1999/xlink" x="0px" y="0px"
	 viewBox="0 0 28 40" style="enable-background:new 0 0 28 40;" xml:space="preserve">
<style type="text/css">
	.st0{fill:#FFFFFF;}
</style>
<g>
	<g>
		<g>
			<path class="st0" d="M16.2,39.8c-0.4,0-0.9-0.2-1.1-0.7C13.5,35.6,12.5,28,12.4,22c-1.5,0-2.8-0.1-3.9-0.4
				c-2.2-0.7-3.3-2.3-3.1-4.3c0.5-4.4,5-7.3,9.1-9.2H7.7C7.1,8.1,6.6,7.6,6.6,7s0.5-1.2,1.2-1.2h13.9c0.6,0,1.1,0.4,1.2,1
				S22.6,7.9,22,8.1c-3.8,0.8-13.6,4.1-14.2,9.4c-0.1,0.6,0,1.3,1.4,1.8c0.9,0.3,2.1,0.4,3.3,0.4c0.1-3.3,0.4-5.9,1.1-6.6
				c1.4-1.4,6.4-0.6,8.5,1.1c1.5,1.1,1.9,2.7,1.1,4.2c-0.9,1.6-4.6,2.9-8.3,3.4c0.1,5.5,0.8,12.7,2.5,16.4c0.3,0.6,0,1.3-0.6,1.5
				C16.6,39.8,16.4,39.8,16.2,39.8z M15.2,14.8c-0.2,0.7-0.4,2.4-0.4,4.7c3-0.5,5.9-1.6,6.3-2.2c0.2-0.4,0.2-0.6-0.1-1
				C19.6,15,16.1,14.5,15.2,14.8z M15,14.8L15,14.8L15,14.8z"/>
			<polygon class="st0" points="27.8,27.8 17.9,27.8 17.9,25.5 25.5,25.5 25.5,2.5 2.5,2.5 2.5,25.5 10,25.5 10,27.8 0.2,27.8 
				0.2,0.2 27.8,0.2 			"/>
		</g>
	</g>
</g>
</svg>
